<?xml version="1.0" standalone="no"?>
<!DOCTYPE svg PUBLIC "-//W3C//DTD SVG 1.1//EN" "http://www.w3.org/Graphics/SVG/1.1/DTD/svg11.dtd" >
<svg xmlns="http://www.w3.org/2000/svg">
<metadata>
Created by FontForge 20120731 at Tue Nov 29 14:19:03 2016
 By admin
</metadata>
<defs>
<font id="iconfont" horiz-adv-x="1024" >
  <font-face 
    font-family="iconfont"
    font-weight="500"
    font-stretch="normal"
    units-per-em="1024"
    panose-1="2 0 6 3 0 0 0 0 0 0"
    ascent="896"
    descent="-128"
    x-height="792"
    bbox="0 -148 3520 896"
    underline-thickness="0"
    underline-position="0"
    unicode-range="U+0078-E7BE"
  />
<missing-glyph 
 />
    <glyph glyph-name=".notdef" 
 />
    <glyph glyph-name=".notdef" 
 />
    <glyph glyph-name=".null" horiz-adv-x="0" 
 />
    <glyph glyph-name="nonmarkingreturn" horiz-adv-x="341" 
 />
    <glyph glyph-name="x" unicode="x" horiz-adv-x="1001" 
d="M281 543q-27 -1 -53 -1h-83q-18 0 -36.5 -6t-32.5 -18.5t-23 -32t-9 -45.5v-76h912v41q0 16 -0.5 30t-0.5 18q0 13 -5 29t-17 29.5t-31.5 22.5t-49.5 9h-133v-97h-438v97zM955 310v-52q0 -23 0.5 -52t0.5 -58t-10.5 -47.5t-26 -30t-33 -16t-31.5 -4.5q-14 -1 -29.5 -0.5
t-29.5 0.5h-32l-45 128h-439l-44 -128h-29h-34q-20 0 -45 1q-25 0 -41 9.5t-25.5 23t-13.5 29.5t-4 30v167h911zM163 247q-12 0 -21 -8.5t-9 -21.5t9 -21.5t21 -8.5q13 0 22 8.5t9 21.5t-9 21.5t-22 8.5zM316 123q-8 -26 -14 -48q-5 -19 -10.5 -37t-7.5 -25t-3 -15t1 -14.5
t9.5 -10.5t21.5 -4h37h67h81h80h64h36q23 0 34 12t2 38q-5 13 -9.5 30.5t-9.5 34.5q-5 19 -11 39h-368zM336 498v228q0 11 2.5 23t10 21.5t20.5 15.5t34 6h188q31 0 51.5 -14.5t20.5 -52.5v-227h-327z" />
    <glyph glyph-name="delete" unicode="&#xe6b4;" 
d="M608 128q-13 0 -22.5 9.5t-9.5 22.5v352q0 13 9.5 22.5t22.5 9.5t22.5 -9.5t9.5 -22.5v-352q0 -13 -9.5 -22.5t-22.5 -9.5zM416 128q-13 0 -22.5 9.5t-9.5 22.5v352q0 13 9.5 22.5t22.5 9.5t22.5 -9.5t9.5 -22.5v-352q0 -13 -9.5 -22.5t-22.5 -9.5zM928 672h-160v64
q0 40 -28 68t-67 28h-321q-40 0 -68 -28t-28 -68v-64h-160q-13 0 -22.5 -9.5t-9.5 -22.5t9.5 -22.5t22.5 -9.5h832q13 0 22.5 9.5t9.5 22.5t-9.5 22.5t-22.5 9.5zM320 736q0 13 9.5 22.5t22.5 9.5h321q13 0 22 -9.5t9 -22.5v-64h-384v64zM736 -64h-448q-40 0 -68 28t-28 68
v480q0 14 9.5 23t22.5 9t22.5 -9t9.5 -23v-480q0 -13 9.5 -22.5t22.5 -9.5h448q13 0 22.5 9.5t9.5 22.5v479q0 13 9.5 22.5t22.5 9.5t22.5 -9.5t9.5 -22.5v-479q0 -40 -28 -68t-68 -28z" />
    <glyph glyph-name="down" unicode="&#xe703;" 
d="M792.5 410.5q-9.5 9.5 -22.5 9.5t-22 -10l-204 -203v561q0 13 -9.5 22.5t-22.5 9.5t-22.5 -9.5t-9.5 -22.5v-563l-234 235q-9 10 -22.5 10t-23 -9.5t-9.5 -22.5t10 -23l287 -289q5 -5 11 -7q6 -3 13 -3q17 0 26 15l255 254q9 9 9 22.5t-9.5 23zM864 -32h-704
q-13 0 -22.5 9.5t-9.5 22.5t9.5 22.5t22.5 9.5h704q13 0 22.5 -9.5t9.5 -22.5t-9.5 -22.5t-22.5 -9.5z" />
    <glyph glyph-name="sousuo" unicode="&#xe601;" 
d="M950 -99l-231 228q98 106 98 248q0 101 -50.5 186t-137 134.5t-189 49.5t-189 -49.5t-137 -134.5t-50.5 -186t50.5 -186t137 -135t188.5 -50q134 0 237 83l232 -228q9 -9 21 -9t20.5 8.5t8.5 20.5t-9 20zM440 63q-132 0 -225 92t-93 222t93 221.5t225 91.5t225.5 -91.5
t93.5 -221.5t-93.5 -222t-225.5 -92z" />
    <glyph glyph-name="attentionfill" unicode="&#xe73c;" 
d="M992 384q0 9 -1 11q-1 6 -2 11q-1 1 -1 2q-1 3 -2 4q-66 145 -197 234.5t-277 89.5t-277 -89t-197 -234q-1 -3 -2 -5q0 -2 -1 -2q0 -2 -1 -8l-2 -11v-6q1 -7 1 -8q0 -3 1 -7v0l2 -6t2 -4q66 -145 197 -234.5t277 -89.5t277 89t196 233q2 3 3 7q0 1 1 1q0 2 0.5 4t1 3.5
t-0.5 1.5v0q2 8 2 13zM512 224q-66 0 -113 47t-47 113t47 113t113 47t113 -47t47 -113t-47 -113t-113 -47z" />
    <glyph glyph-name="yulan" unicode="&#xe73d;" 
d="M992 384q0 9 -1 11q-1 6 -2 11q-1 1 -1 2q-1 3 -2 4q-66 145 -197 234.5t-277 89.5t-277 -89t-197 -234q-1 -3 -2 -5q0 -2 -1 -2q0 -2 -1 -8l-2 -11v-6q1 -7 1 -8q0 -3 1 -7v0l2 -6t2 -4q66 -145 197 -234.5t277 -89.5t277 89t196 233q2 3 3 7q0 1 1 1q0 2 0.5 4t1 3.5
t-0.5 1.5v0q2 8 2 13zM927 382v-1v-1q-59 -128 -173.5 -206t-241.5 -78t-241 78t-174 206v2l-0.5 0.5l-0.5 0.5v1v1q0 1 1 2v1q59 128 173.5 206t241.5 78t241.5 -78t173.5 -206v-1v0q1 -3 1 -4zM512 544q-66 0 -113 -47t-47 -113t47 -113t113 -47t113 47t47 113t-47 113
t-113 47zM512 288q-40 0 -68 28t-28 68t28 68t68 28t68 -28t28 -68t-28 -68t-68 -28z" />
    <glyph glyph-name="guanbi" unicode="&#xe61a;" 
d="M557 299l266 264q9 9 9 22t-9.5 22.5t-22.5 9.5t-23 -9l-265 -264l-263 264q-9 9 -22.5 9t-23 -9t-9.5 -22.5t10 -22.5l263 -264l-265 -264q-10 -9 -10 -22.5t9.5 -22.5t22.5 -9t23 9l265 264l265 -267q10 -9 23 -9t22.5 9.5t9.5 22.5t-9 23z" />
    <glyph glyph-name="post" unicode="&#xe759;" 
d="M800 -64h-576q-40 0 -68 28t-28 68v640q0 40 28 68t68 28h448q13 0 22.5 -9.5t9.5 -22.5t-9.5 -22.5t-22.5 -9.5h-448q-13 0 -22.5 -9.5t-9.5 -22.5v-640q0 -13 9.5 -22.5t22.5 -9.5h576q13 0 22.5 9.5t9.5 22.5v512q0 13 9.5 22.5t22.5 9.5t22.5 -9.5t9.5 -22.5v-512
q0 -40 -28 -68t-68 -28zM512 353q-14 0 -23 9.5t-9 23t9 22.5l418 414q10 9 23 9t22.5 -9.5t9.5 -22.5t-10 -23l-418 -413q-9 -10 -22 -10z" />
    <glyph glyph-name="yuanshuju" unicode="&#xe710;" 
d="M511.5 736q-186.5 0 -304.5 -50.5t-118 -125.5v-528q0 -75 118 -125.5t304.5 -50.5t305 50.5t118.5 125.5v528q0 75 -118.5 125.5t-305 50.5zM512 666q157 0 254.5 -30.5t97.5 -75.5t-97.5 -75t-254.5 -30t-255 30t-98 75t98 75.5t255 30.5zM512 -74q-157 0 -255 30.5
t-98 75.5v75q56 -35 147.5 -55t205.5 -20t205 20t147 55v-75q0 -45 -97.5 -75.5t-254.5 -30.5zM512 102q-157 0 -255 30.5t-98 75.5v75q56 -35 147.5 -55t205.5 -20t205 20t147 55v-75q0 -45 -97.5 -75.5t-254.5 -30.5zM512 278q-157 0 -255 30.5t-98 75.5v76
q56 -36 147.5 -56t205.5 -20t205 20t147 56v-76q0 -45 -97.5 -75.5t-254.5 -30.5z" />
    <glyph glyph-name="xiangmukong" unicode="&#xe600;" 
d="M885 479l-165 206q-3 7 -8.5 12.5t-10 9.5t-11.5 7t-11.5 5t-13.5 3.5t-12.5 2.5t-14 1t-13.5 0.5t-14.5 0t-13.5 -0.5h-165q-2 0 -22 0.5t-25 0t-21 -2.5t-23 -6.5t-16.5 -12.5t-15.5 -20l-165 -206q0 -1 -10.5 -15t-20.5 -33.5t-10 -33.5v-247q0 -34 24 -58.5t58 -24.5
h659q34 0 58 24.5t24 58.5v247q0 13 -10 32.5t-20.5 34t-10.5 15.5zM329 649q6 11 14.5 18t15 10.5t20.5 5.5t19 2.5t22.5 0t19.5 -0.5h149h11.5h13h12t13 -1t11.5 -2t12 -3t10.5 -4.5t10.5 -6t8.5 -8.5t8.5 -11l148 -180q0 -1 3 -5t8.5 -11.5t9.5 -14.5h-231v-123h-247v123
h-231q4 7 9.5 14.5t8.5 11.5t3 5zM885 171q0 -30 -16.5 -46t-47.5 -16h-613q-31 0 -47.5 16t-16.5 46v226h206v-103q0 -9 6 -15t14 -6h289q8 0 14 6t6 15v103h206v-226z" />
    <glyph glyph-name="xiangqingicon" unicode="&#xe60a;" 
d="M511.5 892q-103.5 0 -197.5 -40t-162.5 -108.5t-109 -162.5t-40.5 -197.5t40.5 -197.5t109 -162.5t162.5 -109t197.5 -40.5t197.5 40.5t162.5 109t108.5 162.5t40 197.5t-40 197.5t-108.5 162.5t-162.5 108.5t-197.5 40zM511.5 -71q-92.5 0 -176.5 36t-145 97t-97 145
t-36 176.5t36 176.5t97 145t145 97t176.5 36t176.5 -36t145 -97t97 -145t36 -176.5t-36 -176.5t-97 -145t-145 -97t-176.5 -36zM512 635q-21 0 -36 -15t-15 -36.5t15 -36.5t36 -15t36 15t15 36.5t-15 36.5t-36 15zM512 481q-17 0 -29 -13.5t-12 -32.5v-289q0 -19 12 -32
t29 -13t29 13t12 32v289q0 19 -12 32.5t-29 13.5z" />
    <glyph glyph-name="daimapian" unicode="&#xe6fb;" 
d="M100 375q-10 0 -18 6q-11 7 -13.5 20t5.5 24l182 263q8 11 21 13t24 -5.5t13.5 -20.5t-5.5 -24l-183 -262q-9 -14 -26 -14zM283 132q-16 0 -26 13l-183 243q-8 10 -6 23.5t12.5 21.5t24 6t21.5 -13l182 -243q8 -10 6 -23.5t-12 -21.5q-9 -6 -19 -6zM925 375q-17 0 -27 14
l-182 262q-8 11 -5.5 24t13.5 20.5t24 5.5t20 -13l183 -263q7 -11 5 -24t-13 -20q-8 -6 -18 -6zM742 132q-11 0 -19 6q-11 8 -13 21.5t6 23.5l183 243q8 11 21 13t23.5 -6t12.5 -21.5t-6 -23.5l-182 -243q-10 -13 -26 -13zM418 132q-5 0 -11 2q-12 4 -17.5 16t-1.5 25
l185 505q4 13 16 18.5t24.5 1t18 -16.5t1.5 -25l-184 -505q-8 -21 -31 -21z" />
    <glyph glyph-name="0036xiangxia" unicode="&#xe603;" 
d="M513 423l-4 -6q-19 -19 -61 -60.5t-64 -63.5q-11 -11 -23 -9q-14 3 -19 17q-5 13 5 24q0 1 3 4q95 95 143 142q20 21 41 0l144 -144q15 -15 4 -32q-6 -9 -17 -10.5t-19 5.5q-2 1 -5 4l-123 123q-1 1 -5 6z" />
    <glyph glyph-name="0037xiangxia" unicode="&#xe604;" 
d="M513 343l4 5q14 14 58 57.5t67 67.5q10 10 22 9q15 -2 20 -16q5 -13 -4 -25l-4 -4l-143 -143q-20 -20 -40 0l-144 144q-12 11 -8.5 25t17 18t23.5 -5l11 -11l117 -117z" />
    <glyph glyph-name="0016fanhui" unicode="&#xe606;" 
d="M374 383q6 -4 7 -4q46 -47 154.5 -155t166.5 -166q11 -11 9 -24q-2 -14 -16 -19q-13 -5 -24 4q-1 1 -5 4l-340 340q-20 20 0 40q270 271 341 341q12 13 26 9q13 -4 17 -17t-5 -23q-1 -1 -4 -5l-321 -321z" />
    <glyph glyph-name="0067rili-copy" unicode="&#xe611;" 
d="M193 506h641v6v115q0 27 -27 27h-47q-10 1 -16.5 7t-7.5 16q-1 9 4 16.5t14 9.5q3 1 8 1h47q32 -1 53.5 -22.5t21.5 -53.5v-540q0 -32 -22 -54t-54 -22h-589q-33 0 -54.5 21.5t-21.5 54.5v380v160q0 29 18 50t47 25q3 0 27 1h31q11 -1 18 -7.5t7 -17t-7 -18t-18 -7.5h-24
h-24q-11 0 -18.5 -7t-7.5 -18v-119zM834 456h-642v-5v-361q0 -28 29 -28h585q28 0 28 28v361v5zM513 704h48q12 0 19.5 -7.5t7 -18t-8 -17.5t-18.5 -7h-97q-10 0 -17 6.5t-8 16t4.5 17t15.5 9.5q2 1 7 1h47zM686 679v-48q0 -11 -7 -18.5t-17.5 -7.5t-17.5 7.5t-7 18.5v96
q0 11 7 18.5t17.5 7.5t17.5 -7.5t7 -18.5v-48zM390 679v-49q0 -16 -14 -22q-13 -7 -25 2q-10 7 -10 19q-1 72 0 100q0 10 7 17t17.5 7t17.5 -7t7 -18v-49z" />
    <glyph glyph-name="mail" unicode="&#xe7bd;" 
d="M859 704h-694q-42 0 -71.5 -29.5t-29.5 -71.5v-470q0 -42 29.5 -71.5t71.5 -29.5h694q42 0 71.5 29.5t29.5 71.5v470q0 42 -29.5 71.5t-71.5 29.5zM859 96h-694q-15 0 -26 11t-11 26v470q0 15 11 26t26 11h685l-308 -280q-10 -11 -26 -10.5t-28 12.5l-245 207
q-10 8 -23 7t-21.5 -11t-7.5 -23.5t11 -21.5l242 -205q30 -30 72 -30t71 29l309 281v-462q0 -15 -11 -26t-26 -11z" />
    <glyph glyph-name="4" unicode="&#xe616;" 
d="M512 256l256 257h-513z" />
    <glyph glyph-name="shagnyiye-copy" unicode="&#xe61f;" 
d="M114 419v-1l-2 -2v0v0q-1 -1 -1 -2v-1h-1q0 -1 -1 -2v0q0 -1 -1 -2v-1q-1 -1 -1 -2v-1l-1 -1v-1q-1 -1 -1 -2v-1t-1 -2v0v-1v-2v0l-1 -2v-1v0v-2v-1.5v-1.5v-6v-1v0v-2v-2v0v-1l1 -2v0v0v-2v-0.5v-0.5q1 -1 1 -2v-0.5v-0.5q0 -1 1 -2v0v-1l1 -1v-1q0 -1 1 -2v-0.5v-0.5
q1 -1 1 -2v0v0q1 -1 1 -2h1v-1q0 -1 1 -2v0v0l2 -2v-1q3 -3 6 -7l234 -233q17 -17 41 -17t41.5 17t17.5 41t-18 41l-134 135h561q24 0 41 17t17 41t-17 41t-41 17h-561l134 135q18 17 18 41t-17.5 41t-41.5 17t-41 -17l-234 -233q-3 -4 -6 -7z" />
    <glyph glyph-name="fanhuima" unicode="&#xe64e;" 
d="M617 499h73l-92 96v-77q0 -8 5.5 -13.5t13.5 -5.5zM617 478q-17 0 -28.5 11.5t-11.5 28.5v97h-225q-15 0 -26 -10.5t-11 -25.5v-390q0 -15 11 -25.5t26 -10.5h320q15 0 26 10.5t11 25.5v289h-92zM440 274q4 -4 4 -10t-4.5 -10t-10.5 -4t-10 4l-42 42q-6 6 -6 13.5t6 12.5
l42 42q4 4 10 4t10.5 -4t4.5 -10t-4 -10l-35 -35zM539 366l-26 -121q-2 -11 -14 -11h-3q-12 3 -12 14q0 2 1 3l25 121q3 11 14 11q6 0 10.5 -4t4.5 -10v-3zM646 294l-42 -42q-4 -4 -10 -4t-10.5 4t-4.5 10t5 10l34 35l-34 35q-5 4 -5 10t4.5 10.5t10.5 4.5t10 -5l42 -42v0
q6 -5 6 -12.5t-6 -13.5zM512 896q-139 0 -257 -68.5t-186.5 -186.5t-68.5 -257t68.5 -257t186.5 -186.5t257 -68.5t257 68.5t186.5 186.5t68.5 257t-68.5 257t-186.5 186.5t-257 68.5zM512 -102q-99 0 -189 38.5t-155 103.5t-103.5 155t-38.5 189t38.5 189t103.5 155
t155 103.5t189 38.5t189 -38.5t155 -103.5t103.5 -155t38.5 -189t-38.5 -189t-103.5 -155t-155 -103.5t-189 -38.5z" />
    <glyph glyph-name="wendang" unicode="&#xe64f;" 
d="M617 499h73l-92 96v-77q0 -8 5.5 -13.5t13.5 -5.5zM617 478q-17 0 -28.5 11.5t-11.5 28.5v97h-225q-15 0 -26 -10.5t-11 -25.5v-390q0 -15 11 -25.5t26 -10.5h320q15 0 26 10.5t11 25.5v289h-92zM601 328h-77v-77q0 -5 -3.5 -8.5t-9 -3.5t-9 3.5t-3.5 8.5v77h-77
q-5 0 -9 4t-4 9t4 9t9 4h77v77q0 5 3.5 8.5t9 3.5t9 -3.5t3.5 -8.5v-77h77q6 0 9.5 -4t3.5 -9t-3.5 -9t-9.5 -4zM512 896q-139 0 -257 -68.5t-186.5 -186.5t-68.5 -257t68.5 -257t186.5 -186.5t257 -68.5t257 68.5t186.5 186.5t68.5 257t-68.5 257t-186.5 186.5t-257 68.5z
M512 -102q-99 0 -189 38.5t-155 103.5t-103.5 155t-38.5 189t38.5 189t103.5 155t155 103.5t189 38.5t189 -38.5t155 -103.5t103.5 -155t38.5 -189t-38.5 -189t-103.5 -155t-155 -103.5t-189 -38.5z" />
    <glyph glyph-name="shujuku" unicode="&#xe650;" 
d="M512 896q-139 0 -257 -68.5t-186.5 -186.5t-68.5 -257t68.5 -257t186.5 -186.5t257 -68.5t257 68.5t186.5 186.5t68.5 257t-68.5 257t-186.5 186.5t-257 68.5zM512 -102q-99 0 -189 38.5t-155 103.5t-103.5 155t-38.5 189t38.5 189t103.5 155t155 103.5t189 38.5
t189 -38.5t155 -103.5t103.5 -155t38.5 -189t-38.5 -189t-103.5 -155t-155 -103.5t-189 -38.5zM292 293v0v0zM732 293v0v0zM512 256q-91 0 -155.5 11t-64.5 26v-90q0 -15 64.5 -26t155.5 -11t155.5 11t64.5 26v90q0 -15 -64.5 -26t-155.5 -11zM292 420zM512 383
q-91 0 -155.5 11t-64.5 26v-90q0 -16 64.5 -26.5t155.5 -10.5t155.5 10.5t64.5 26.5v90q0 -15 -64.5 -26t-155.5 -11zM732 420zM732 565q0 15 -64.5 26t-155.5 11t-155.5 -11t-64.5 -26v-90q0 -15 64.5 -26t155.5 -11t155.5 11t64.5 26v90z" />
    <glyph glyph-name="tianjiashujuku" unicode="&#xe651;" 
d="M512 896q-139 0 -257 -68.5t-186.5 -186.5t-68.5 -257t68.5 -257t186.5 -186.5t257 -68.5t257 68.5t186.5 186.5t68.5 257t-68.5 257t-186.5 186.5t-257 68.5zM512 -102q-99 0 -189 38.5t-155 103.5t-103.5 155t-38.5 189t38.5 189t103.5 155t155 103.5t189 38.5
t189 -38.5t155 -103.5t103.5 -155t38.5 -189t-38.5 -189t-103.5 -155t-155 -103.5t-189 -38.5zM667 411q-53 0 -90.5 -37.5t-37.5 -90.5t37.5 -90.5t90.5 -37.5t90.5 37.5t37.5 90.5t-37.5 90.5t-90.5 37.5zM728 268h-47v-47v0q0 -6 -4 -10t-10 -4t-10.5 4t-4.5 10v47h-47v0
q-6 0 -10 4.5t-4 10.5v0q0 6 4 10t10 4v0h47v47v0q0 6 4.5 10.5t10.5 4.5t10 -4.5t4 -10.5v-47h47h1q6 0 10 -4t4 -10t-4 -10.5t-10 -4.5h-1zM450 304q30 0 59 2q8 56 50 93q-51 -4 -109 -4q-91 0 -156 10.5t-65 25.5v-90q0 -15 65 -26t156 -11zM450 450q91 0 155.5 10.5
t64.5 25.5v91q0 15 -64.5 25.5t-155.5 10.5t-156 -10.5t-65 -25.5v-91q0 -15 65 -25.5t156 -10.5zM508 269q-28 -1 -58 -1q-91 0 -156 10.5t-65 25.5v-90q0 -15 65 -25.5t156 -10.5q51 0 98 3q-35 38 -40 88z" />
    <glyph glyph-name="xiangmuguanli" unicode="&#xe652;" 
d="M512 896q-139 0 -257 -68.5t-186.5 -186.5t-68.5 -257t68.5 -257t186.5 -186.5t257 -68.5t257 68.5t186.5 186.5t68.5 257t-68.5 257t-186.5 186.5t-257 68.5zM512 -102q-99 0 -189 38.5t-155 103.5t-103.5 155t-38.5 189t38.5 189t103.5 155t155 103.5t189 38.5
t189 -38.5t155 -103.5t103.5 -155t38.5 -189t-38.5 -189t-103.5 -155t-155 -103.5t-189 -38.5zM328 543q9 11 19 21q7 8 15 16t12 11q15 13 33 17l-10 -5h3h3h221q7 0 15.5 -2.5t16.5 -11.5q5 -5 11 -13q7 -8 13 -15q57 -68 82 -154zM744 390q0 -17 -11 -28t-31 -11h-378
q-19 0 -30.5 11t-11.5 28v73q0 16 10 28t33 12h377q23 0 32.5 -12t9.5 -28v-73zM551 427q0 6 -3.5 9t-8.5 3h-52q-6 0 -9.5 -3.5t-3.5 -8.5q1 -7 4 -10t9 -3h52q11 0 12 13zM742 204q0 -16 -12.5 -28t-31.5 -11h-375q-17 0 -30 11.5t-13 31.5v69q0 17 10.5 28.5t33.5 11.5
h376q21 0 31.5 -11.5t10.5 -27.5v-74zM549 241q0 5 -3 8.5t-9 3.5h-52q-5 0 -8.5 -3.5t-3.5 -8.5t3.5 -9t8.5 -4h52q6 0 9 4t3 9z" />
    <glyph glyph-name="baseguanli" unicode="&#xe653;" 
d="M512 896q-139 0 -257 -68.5t-186.5 -186.5t-68.5 -257t68.5 -257t186.5 -186.5t257 -68.5t257 68.5t186.5 186.5t68.5 257t-68.5 257t-186.5 186.5t-257 68.5zM512 -102q-99 0 -189 38.5t-155 103.5t-103.5 155t-38.5 189t38.5 189t103.5 155t155 103.5t189 38.5
t189 -38.5t155 -103.5t103.5 -155t38.5 -189t-38.5 -189t-103.5 -155t-155 -103.5t-189 -38.5zM687 361q2 13 2 23t-2 23l50 38q7 6 3 14l-48 80q-4 9 -14 5l-59 -23q-18 14 -39 23l-9 61q-2 9 -12 9h-94q-10 0 -12 -9l-9 -61q-19 -8 -39 -23l-59 23q-9 4 -14 -5l-47 -80
q-6 -8 2 -14l50 -38q-2 -13 -2 -23t2 -23l-50 -38q-7 -6 -2 -14l47 -80q4 -9 14 -5l59 23q18 -14 39 -23l9 -61q2 -9 12 -9h94q10 0 12 9l9 61q20 8 39 23l59 -23q10 -4 14 5l48 80q4 8 -3 14zM512 303q-34 0 -58 24t-24 57t24 57t58 24t58 -24t24 -57t-24 -57t-58 -24z" />
    <glyph glyph-name="easyapi-logo" unicode="&#xe654;" horiz-adv-x="3840" 
d="M700 714h-302v-185h299v-74h-299v-235h299v-75h-376v644h379v-75zM1260 145h-72v70q-79 -86 -182 -86t-176.5 75.5t-73.5 179.5t74 178t180 74.5t178 -85.5v73h72v-479zM1011 197q74 0 127 53t53 131.5t-52 131.5t-128 53t-128.5 -55t-52.5 -129.5t53.5 -129.5t127.5 -55
zM1627 568l-47 -48q-52 48 -96 48q-27 0 -45.5 -17t-18.5 -42t20.5 -44t74 -47t82.5 -61t29 -82q0 -61 -43.5 -103.5t-106.5 -42.5q-87 0 -146 74l46 51q48 -55 98 -55q34 0 57.5 22t23.5 51.5t-21.5 49t-74.5 46t-80 58.5t-27 84.5t38.5 89.5t102 37t134.5 -69zM2124 624
l-287 -648h-76l93 210l-196 438h76l159 -350l154 350h77zM2329 794l-258 -640h107l194 512h43l171 -512h108l-236 640h-129zM3430 794h90v-640h-90v640zM3088 794h-106v-436h106q87 0 149 64t62 154t-62 154t-149 64zM2829 794h89v-640h-89v640z" />
    <glyph glyph-name="qianmingcanshu" unicode="&#xe657;" 
d="M340 597l-63 52l-220 -265l220 -265l63 51l-177 214zM308 343h82v82h-82v-82zM716 425h-82v-82h82v82zM471 343h82v82h-82v-82zM747 649l-63 -51l177 -214l-177 -213l63 -52l220 265z" />
    <glyph glyph-name="jsontijiao" unicode="&#xe658;" 
d="M994 747q0 1 1 4t1 5q0 25 -18.5 43t-44.5 18q-19 0 -37 -14v2l-833 -418q-15 -5 -25 -17.5t-10 -29.5q0 -16 10.5 -29t26.5 -18l253 -84v1q8 -3 13 -3q17 0 28.5 11.5t11.5 27.5q0 24 -22 35l1 1l-193 64l661 331l-386 -422q-21 -17 -21 -42l2 -43v-179
q0 -17 11.5 -28.5t28.5 -11.5t28.5 11.5t11.5 28.5v159l288 -96q12 -7 24 -7q20 0 34.5 14.5t14.5 34.5v0l142 651h-2zM780 137l-266 90l375 410z" />
    <glyph glyph-name="xiayiye-copy-copy" unicode="&#xe7be;" 
d="M910 349v1l2 2v0v0q1 1 1 2v1h1q0 1 1 2v0q0 1 1 2v1q1 1 1 2v1l1 1v1q1 1 1 2v1t1 2v0v1v2v0l1 2v1v0v2v1.5v1.5v6v1v0v2v2v0v1l-1 2v0v0v2v0.5v0.5q-1 1 -1 2v0.5v0.5q0 1 -1 2v0v1l-1 1v1q0 1 -1 2v0.5v0.5q-1 1 -1 2v0v0q-1 1 -1 2l-0.5 0.5l-0.5 0.5q0 1 -1 2v0v0
l-2 2v1q-3 3 -6 7l-234 233q-17 17 -41 17t-41.5 -17t-17.5 -41t18 -41l134 -135h-561q-24 0 -41 -17t-17 -41t17 -41t41 -17h561l-134 -135q-18 -17 -18 -41t17.5 -41t41.5 -17t41 17l234 233q3 4 6 7z" />
    <glyph glyph-name="zhandiantuiguang" unicode="&#xe659;" 
d="M781 -89q-76 0 -130.5 54.5t-54.5 131.5q0 8 1 17l-235 128q-52 -44 -120 -44q-76 0 -130.5 54.5t-54.5 131.5t54.5 131.5t131.5 54.5q42 0 81 -19q48 -24 76 -69l200 151q-4 19 -4 39t4 39q13 63 64.5 104.5t116.5 41.5v0q50 0 93 -24q26 -16 26 -47q0 -14 -7 -27
q-16 -27 -47 -27v0q-14 0 -26 7q-16 9 -34 10q-6 0 -4 0q-28 0 -49 -17.5t-27 -43.5q-2 -8 -2 -17q0 -23 13 -42q23 -35 64 -35h1q31 0 53.5 22t23.5 53q0 23 16 38t38 16q24 -1 39 -17t15 -39q0 -20 -5 -39q-13 -61 -64 -101.5t-117 -40.5q-75 0 -129 52l-227 -120
q3 -16 3 -34q0 -27 -7 -53l217 -117q36 44 90 60l-1 1q18 7 54 7q77 0 131.5 -54.5t54.5 -130.5v-1q0 -77 -54 -131t-131 -54h-1v0zM781 174q-31 -1 -53.5 -23.5t-22.5 -54t22.5 -54t53.5 -23.5q32 0 55 22.5t23 54.5t-22.5 55t-55.5 23v0zM243 461q-32 0 -55 -22.5
t-23 -54.5t23 -54.5t55 -22.5t54.5 22.5t22.5 54.5t-22.5 54.5t-54.5 22.5z" />
    <glyph glyph-name="jibenxinxi" unicode="&#xe65a;" 
d="M702 839h-471q-56 0 -96 -40t-40 -96v-638q0 -56 40 -96t96 -40h562q56 0 96 40t40 96v547zM853 65q0 -25 -17.5 -42.5t-42.5 -17.5h-562q-25 0 -42.5 17.5t-17.5 42.5v638q0 25 17.5 42.5t42.5 17.5h364v-197q1 -25 18.5 -43t42.5 -18h197v-440zM686 581q-6 0 -10.5 4.5
t-4.5 10.5v167l182 -182h-167zM580 225h-258q-16 0 -27 -11t-11 -27t11 -27t27 -11h258q16 0 27 11t11 27t-11 27t-27 11zM284 354v-1q0 -15 11 -26t27 -11v0h380q16 0 27 11t11 27t-11 27t-27 11h-380v0q-16 0 -27 -11t-11 -27v0z" />
    <glyph glyph-name="geren1" unicode="&#xe65b;" 
d="M903 -42q-3 102 -71.5 203.5t-161.5 142.5q58 36 98.5 110t40.5 142v0q0 123 -87 210t-210 87t-210 -87t-87 -210q0 -78 37.5 -145t102.5 -107q-103 -45 -167 -138.5t-67 -207.5v-4q0 -17 11.5 -28t27.5 -11t27.5 11t11.5 28q3 127 94 216t219 89t219 -89t94 -216
q0 -17 11.5 -28t27.5 -11t27.5 11t11.5 28v4zM512 337v0q-91 0 -155 64t-64 155v0q0 91 64 155t155 64t155 -64t64 -155t-64 -155t-155 -64z" />
    <glyph glyph-name="mima1" unicode="&#xe65c;" 
d="M668 616q0 66 -45.5 112.5t-110.5 46.5t-110.5 -46.5t-45.5 -112.5v-107h312v107zM841 431h-658v-438h658v438zM277 616q0 98 69 167.5t166 69.5t166 -69.5t69 -167.5v-107h109q26 0 44.5 -18.5t18.5 -43.5v-470q0 -26 -18.5 -44t-44.5 -18h-688q-26 0 -44.5 18t-18.5 44
v470q0 25 18.5 43.5t44.5 18.5h109v107z" />
    <glyph glyph-name="chengyuan" unicode="&#xe65d;" 
d="M838 619v0l3 -10v1q-2 4 -4 11q-1 2 -1 3q-10 29 -25.5 44.5t-31.5 18.5q-19 3 -33.5 -6t-14.5 -30q0 -7 3 -14v0v-1q2 -7 7 -15q21 -53 21 -111q0 -113 -76 -197q74 -44 128.5 -127.5t74.5 -176.5h92q-16 93 -61 181t-109 145q17 34 29.5 85t12.5 90v0v1q0 55 -15 108z
M429.5 259q103.5 0 176.5 73.5t73 177t-73 176.5t-177 73v0q-103 0 -176.5 -73t-73.5 -176.5t73.5 -177t177 -73.5zM587 512q0 -67 -47 -114t-114 -47t-114.5 47t-47.5 114t47.5 114.5t114.5 47.5t114 -47.5t47 -114.5zM770 9q-15 90 -65.5 168t-127 125.5t-159.5 47.5
q-70 0 -135 -28t-113.5 -75t-82 -108.5t-44.5 -129.5h91q23 102 102 176t182 74q89 0 163.5 -74.5t97.5 -175.5h91z" />
    <glyph glyph-name="tuichu" unicode="&#xe65e;" 
d="M512 438l-97 96q-11 11 -26.5 11t-26.5 -11v0q-11 -11 -11 -26.5t11 -26.5l96 -97l-96 -97q-11 -11 -11 -26.5t11 -26.5v0q11 -11 26.5 -11t26.5 11l97 96l97 -96q11 -11 26.5 -11t26.5 11v0q11 11 11 26.5t-11 26.5l-96 97l96 97q11 11 11 26.5t-11 26.5v0
q-11 11 -26.5 11t-26.5 -11zM512 -71q-92 0 -176.5 36t-145.5 97t-97 145.5t-36 176.5t36 176.5t97 145.5t145.5 97t176.5 36t176.5 -36t145.5 -97t97 -145.5t36 -176.5t-36 -176.5t-97 -145.5t-145.5 -97t-176.5 -36zM512 763q-103 0 -190.5 -50.5t-138 -138t-50.5 -190.5
t50.5 -190.5t138 -138t190.5 -50.5t190.5 50.5t138 138t50.5 190.5t-50.5 190.5t-138 138t-190.5 50.5z" />
    <glyph glyph-name="zhuti" unicode="&#xe660;" 
d="M515 -16q-240 0 -303 72q-24 27 -20 56q13 174 28 276q-5 3 -20 9l-14 6l-58 28q-73 34 -84 84q-7 35 15 61q2 3 4 4l227 194q12 10 26 10q12 0 23 -8t15 -19q9 -26 26 -44.5t38 -26.5t38.5 -11t35.5 -3q16 0 18 1h11q6 -1 17 -1q18 0 35 3t37.5 11t37 26t25.5 44
q4 12 15 20t23 8q15 0 26 -10l224 -194l4 -4q22 -26 15 -61q-11 -50 -84 -84q0 -1 -56 -28q-5 -2 -14 -6q-15 -6 -19 -9q13 -89 28 -277q3 -27 -21 -55q-63 -72 -299 -72zM272 110q3 -4 8.5 -8.5t23.5 -11.5t43 -12.5t69 -9.5t99 -4q54 0 98 4t68 9.5t41.5 13t23.5 11.5t9 7
q-16 193 -28 269q-9 62 69 93q8 3 10 4q12 6 55 28q28 13 38 25l-175 152q-19 -28 -45 -47t-53.5 -27t-48 -11t-39.5 -3q-12 0 -23 1q-11 -1 -22 -1h-1q-20 0 -40.5 3t-48.5 11.5t-54.5 27.5t-45.5 46l-178 -152q10 -12 38 -25l4.5 -2t11 -5t14 -7t15 -7.5t12.5 -5.5
q2 -2 10 -5q78 -31 69 -93q-12 -78 -27 -268z" />
    <glyph glyph-name="shanchuxiangmu1" unicode="&#xe661;" 
d="M360 422q1 15 12 26t26.5 11t26.5 -11t11 -26v-228q0 -15 -11 -26t-26.5 -11t-26.5 11t-12 26v228zM57 615.5q0 17.5 12 29.5t30 12h826q17 -1 29 -13t12 -28.5t-12 -29t-29 -12.5h-826q-18 0 -30 12t-12 29.5zM588 422q0 15 11.5 26t26.5 11t26 -11t12 -26v-228
q-1 -15 -12 -26t-26 -11t-26.5 11t-11.5 26v228zM664 657v91v0q0 6 -4.5 10.5t-10.5 4.5h-274q-6 0 -10.5 -4.5t-4.5 -10.5v-91h-76v121v1q0 25 18 42.5t43 17.5h334q25 0 43 -17.5t18 -43.5v-121h-76zM209 -71v0q-25 0 -43 17.5t-18 43.5v584h76v-554v0q0 -6 4.5 -10.5
t10.5 -4.5h546q6 0 10.5 4.5t4.5 10.5v554h76v-584q0 -26 -17.5 -43.5t-43.5 -17.5h-606v0z" />
    <glyph glyph-name="guidangxiangmu" unicode="&#xe662;" 
d="M105 548l-39 -47l39 63l376 -235q12 -7 31 -7t31 7l375 235l40 -63l-40 47l40 47l-40 -63l-375 235q-12 7 -31 7t-31 -7l-376 -235l-39 63zM66 501q-23 21 -23 47.5t23 46.5l376 242q30 16 70 16t70 -16l376 -242q23 -20 23 -46.5t-23 -47.5l-376 -242q-30 -16 -70 -16
t-70 16zM59 431q-18 -22 -16 -47.5t23 -46.5l376 -242q30 -16 70 -16t70 16l376 242q21 21 23 46.5t-16 47.5q-2 -3 -7 -8l-376 -242q-30 -16 -70 -16t-70 16l-376 242q-4 5 -7 8zM59 267q-18 -22 -16 -47.5t23 -46.5l376 -242q30 -16 70 -16t70 16l376 242q21 21 23 46.5
t-16 47.5q-2 -3 -7 -8l-376 -243q-30 -15 -70 -15t-70 15l-376 243q-5 5 -7 8z" />
    <glyph glyph-name="gendizhi" unicode="&#xe663;" 
d="M510 821h-398q-24 0 -40.5 -16.5t-16.5 -40.5v-398q0 -23 16.5 -40t40.5 -17h398q24 0 40.5 17t16.5 40v398q0 24 -16.5 40.5t-40.5 16.5zM482 437q0 -17 -12.5 -29.5t-30.5 -12.5h-256q-18 0 -30.5 12.5t-12.5 29.5v256q0 18 12.5 30.5t30.5 12.5h256v0q18 0 30.5 -12.5
t12.5 -30.5v-256zM912 601h-540q-24 0 -40.5 -16.5t-16.5 -40.5v-540q0 -24 16.5 -40.5t40.5 -16.5h540q24 0 40.5 16.5t16.5 40.5v540q0 24 -16.5 40.5t-40.5 16.5zM884 75q0 -18 -12.5 -30.5t-30.5 -12.5h-398q-18 0 -30.5 12.5t-12.5 30.5v398q0 18 12.5 30.5t30.5 12.5
h398q18 0 30.5 -12.5t12.5 -30.5v-398z" />
    <glyph glyph-name="yulan1" unicode="&#xe664;" 
d="M512 637q127 0 221.5 -67.5t150.5 -185.5h97q-28 70 -75 132t-107 110t-135 75.5t-152 27.5t-152 -27.5t-135 -75.5t-107 -110t-75 -132h97q56 118 150.5 185.5t221.5 67.5zM512 131q-127 0 -221.5 67.5t-150.5 185.5h-97q28 -70 75 -132t107 -110t135 -75.5t152 -27.5
t152 27.5t135 75.5t107 110t75 132h-97q-56 -118 -150.5 -185.5t-221.5 -67.5zM512 384zM384 384q0 -53 37.5 -90.5t90.5 -37.5t90.5 37.5t37.5 90.5t-37.5 90.5t-90.5 37.5t-90.5 -37.5t-37.5 -90.5z" />
    <glyph glyph-name="diyu" unicode="&#xe665;" 
d="M966 537v27q-4 28 -22.5 39t-43.5 0q-12 -5 -33.5 -17.5t-24.5 -13.5q-39 -22 -31 -57q7 -33 48 -35q1 0 14 -5v-340l-217 -110q-195 102 -207 108q-16 8 -36 18.5t-25.5 14.5t-18.5 7.5t-15 3.5t-14 -3.5t-17.5 -7.5t-25 -14.5t-35.5 -18.5q-4 -2 -115 -61v289v23.5
t2 22.5t6.5 20.5t13.5 18t23 14.5q18 7 22 26.5t-7 33.5q-21 32 -57 16q-12 -5 -31.5 -16.5t-26.5 -14.5q-35 -18 -35 -62v-216v-215q1 -91 85 -47q121 63 178 96q35 20 70 1q39 -22 115 -61.5t111 -59.5q40 -22 81 1q110 60 223 114q26 13 36.5 31t10.5 46q-1 50 -1 404z
M474 274q21 -20 37.5 -20t38.5 21q113 107 159 212q7 16 13 35.5t12.5 45t10.5 37.5q-4 89 -58.5 152.5t-140.5 77.5q-82 14 -153.5 -30t-97.5 -124q-28 -83 10 -175q48 -116 169 -232zM518 745q59 -3 97.5 -48t31.5 -103q-13 -96 -103 -207q-13 -15 -30.5 -15.5t-32.5 12.5
q-33 28 -69 103.5t-36 119.5q0 60 41 100t101 38z" />
    <glyph glyph-name="liebiao" unicode="&#xe666;" 
d="M922 347h-566q-16 0 -27 11t-11 26.5t11 26.5t27 11h566q15 0 26 -11t11 -26.5t-11 -26.5t-26 -11v0zM922 647h-566q-16 0 -27 11t-11 26.5t11 26.5t27 11h566q15 0 26 -11t11 -26.5t-11 -26.5t-26 -11v0zM137 9q-32 0 -54 22t-22 53t22 53t53.5 22t53.5 -22t22 -53
t-22 -53t-53 -22v0zM137 309q-32 0 -54 22t-22 53.5t22 53.5t53.5 22t53.5 -22t22 -53.5t-22 -53.5t-53 -22v0zM137 610q-32 0 -54 22t-22 53t22 53t53.5 22t53.5 -22t22 -53t-22 -53t-53 -22v0zM356 122h566q15 0 26 -11t11 -26.5t-11 -26.5t-26 -11h-566q-16 0 -27 11
t-11 26.5t11 26.5t27 11v0zM356 122z" />
    <glyph glyph-name="tongji" unicode="&#xe667;" 
d="M825 379l1 -17q0 -91 -45 -168.5t-122.5 -122.5t-169 -45t-169 45t-122.5 122.5t-45 169t45 168.5t122.5 122t169.5 45q5 0 21 -1v91q-20 1 -21 1q-116 0 -214.5 -57t-155.5 -155.5t-57 -214.5t57 -214t155.5 -155t214 -57t214 57t155.5 155t57 214q0 4 -0.5 10t-0.5 7
h-90v0zM492 832v0q-25 0 -42 -17t-17 -41v0v-411q0 -24 17 -41.5t42 -17.5h410v0q25 0 42 17.5t17 41.5q0 96 -37 182.5t-100 149.5t-150 100t-182 37zM523 395v347q134 -23 229.5 -118.5t118.5 -228.5h-348v0z" />
    <glyph glyph-name="yunyingshang" unicode="&#xe668;" 
d="M924 761h-824q-24 0 -40.5 -16.5t-16.5 -40.5v-640q0 -24 16.5 -40.5t40.5 -16.5h824q24 0 40.5 16.5t16.5 40.5v640q0 24 -16.5 40.5t-40.5 16.5zM896 135q0 -18 -13 -30.5t-32 -12.5h-678q-19 0 -32 12.5t-13 30.5v498q0 18 13 30.5t32 12.5h678q19 0 32 -12.5
t13 -30.5v-498zM827.5 566q-9.5 9 -20.5 10.5t-18 -5.5l-303 -303l-119 119q-5 5 -15 5h-1h-1h-1h-1q-10 0 -15 -5l-142 -142q-7 -7 -5.5 -18.5t11 -20.5t20.5 -10.5t18 5.5l115 115l115 -115q0 -1 1 -1t1 -1q9 -7 19 -8t16 6l331 330q7 7 5.5 18.5t-11 20.5z" />
    <glyph glyph-name="baojingshezhi" unicode="&#xe669;" 
d="M944 306l-2 1q14 80 -1 161l79 76l-35 86l-113 4h-1q-46 66 -112 111v114l-86 35l-83 -79q-79 14 -158 0l-82 78l-84 -35l-1 -112q-67 -47 -113 -114h-113l-36 -87l79 -82q-15 -79 -1 -157l-4 -1l-73 -82l36 -86l107 3l1 1q46 -69 113 -116l-1 -3l7 -111l85 -35l83 75
l1 3q79 -14 157 1l80 -79l85 35l3 115q65 45 111 111v0h113l36 88zM861 370q-1 -14 -2 -21v-4.5v-3.5h-1q-6 -48 -23 -91q-17 -41 -46 -79v0h-0.5h-0.5q-42 -55 -102 -89.5t-128 -44.5v0h-1h-1q-41 -5 -81 -1h-2.5h-2.5v1q-49 6 -92 24t-82 48l-1 -1q-36 28 -64 67h1
q-55 75 -67 166l-1 -1q-5 45 1 89l1 -1q6 48 23 90t46 80v0q1 2 3.5 5t3.5 4l3 3t2 3q26 30 51 49h1q73 56 164.5 69t182.5 -23q87 -36 143 -110t69 -165v0q1 -1 1 -4v-5q1 -4 1 -20q1 -17 1 -34zM700 261v143q0 68 -52 116.5t-124 48.5t-124 -48.5t-52 -116.5l1 -143
q-10 0 -17.5 -6.5t-7.5 -16.5t7.5 -17t17.5 -7h351q11 0 18 7t7 17t-7 16.5t-18 6.5zM624 304q0 -11 -4 -25h-191q-4 14 -4 25v94q0 44 29 75.5t70 31.5t71 -31.5t30 -75.5z" />
  </font>
</defs>
</svg>
